# xmcd CD database file
#
# Track frame offsets:
#	150
#	4906
#	7263
#	11012
#	13980
#	17733
#	20300
#	25043
#	28805
#	31226
#	45778
#	48270
#	51318
#	64838
#	69402
#	78312
#	81543
#	84813
#	97330
#	105455
#	121360
#	126503
#	131363
#	142690
#	153017
#	162488
#	171333
#	184415
#	195315
#	207350
#	216765
#	224575
#	232430
#	239206
#
# Disc length: 3306 seconds
#
# Revision: 2
# Processed by: cddbd v1.5.1PL0 Copyright (c) Steve Scherf et al.
# Submitted via: CDex 1.51
#
DISCID=dd0ce822
DTITLE=ATLUS - 真・女神転生 Sound Collection Disc2
DYEAR=2003
DGENRE=Game
TTITLE0=真・女神転生?／タイトルデモ
TTITLE1=タイトル
TTITLE2=ジム
TTITLE3=3D:ヴァーチャルバトラー
TTITLE4=店
TTITLE5=3D:ヴァルハラ
TTITLE6=Neutral
TTITLE7=2D:フィールド
TTITLE8=エンカウント
TTITLE9=戦闘
TTITLE10=レベルアップ
TTITLE11=記憶回復
TTITLE12=3D:センター
TTITLE13=Law
TTITLE14=邪教の館
TTITLE15=悪魔合体
TTITLE16=2D:セイレーン
TTITLE17=3D:地下世界
TTITLE18=中ボス戦闘
TTITLE19=Chaos
TTITLE20=カジノ
TTITLE21=ターミナル
TTITLE22=ディスコ
TTITLE23=2D:魔界
TTITLE24=3D:魔界
TTITLE25=ヒロイン
TTITLE26=大ボス戦闘
TTITLE27=ゲームオーバー
TTITLE28=アリス
TTITLE29=真・女神転生NINE スタンドアローン版／ボス系戦闘
TTITLE30=吉祥寺
TTITLE31=原宿
TTITLE32=渋谷
TTITLE33=ラスボス戦闘
EXTD=YEAR: 2003
EXTT0=
EXTT1=
EXTT2=
EXTT3=
EXTT4=
EXTT5=
EXTT6=
EXTT7=
EXTT8=
EXTT9=
EXTT10=
EXTT11=
EXTT12=
EXTT13=
EXTT14=
EXTT15=
EXTT16=
EXTT17=
EXTT18=
EXTT19=
EXTT20=
EXTT21=
EXTT22=
EXTT23=
EXTT24=
EXTT25=
EXTT26=
EXTT27=
EXTT28=
EXTT29=
EXTT30=
EXTT31=
EXTT32=
EXTT33=
PLAYORDER=
